<!DOCTYPE svg PUBLIC "-//W3C//DTDSVG1.1//EN" "http://www.w3.org/Graphics/SVG/1.1/DTD/svg11.dtd">

<svg fill="#000000" viewBox="0 0 24 24" id="phone-out" data-name="Line Color" xmlns="http://www.w3.org/2000/svg" class="icon line-color">
    <g id="SVGRepo_bgCarrier" stroke-width="0"></g>
    <g id="SVGRepo_tracerCarrier" stroke-linecap="round" stroke-linejoin="round"></g>
    <g id="SVGRepo_iconCarrier">
        <path id="secondary" d="M21,9a6,6,0,0,0-6-6" style="fill: none; stroke-linecap: round; stroke-linejoin: round; stroke-width: 2;"></path>
        <path id="secondary-2" data-name="secondary" d="M15,7a2,2,0,0,1,2,2" style="fill: none;  stroke-linecap: round; stroke-linejoin: round; stroke-width: 2;"></path>
        <path id="primary" d="M21,15v3.93a2,2,0,0,1-2.29,2A18,18,0,0,1,3.14,5.29,2,2,0,0,1,5.13,3H9a1,1,0,0,1,1,.89,10.74,10.74,0,0,0,1,3.78,1,1,0,0,1-.42,1.26l-.86.49a1,1,0,0,0-.33,1.46,14.08,14.08,0,0,0,3.69,3.69,1,1,0,0,0,1.46-.33l.49-.86A1,1,0,0,1,16.33,13a10.74,10.74,0,0,0,3.78,1A1,1,0,0,1,21,15Z" style="fill: none; stroke: #666666; stroke-linecap: round; stroke-linejoin: round; stroke-width: 2;"></path>
    </g>
</svg>
